<?xml version="1.0" encoding="UTF-8" standalone="no"?>
<svg width="4000px" height="3000px" viewBox="0 0 4000 3000" version="1.1" xmlns="http://www.w3.org/2000/svg" xmlns:xlink="http://www.w3.org/1999/xlink" xmlns:sketch="http://www.bohemiancoding.com/sketch/ns">
    <!-- Generator: Sketch 3.4.2 (15857) - http://www.bohemiancoding.com/sketch -->
    <title>video-mask copy</title>
    <desc>Created with Sketch.</desc>
    <defs></defs>
    <g id="Page-1" stroke="none" stroke-width="1" fill="none" fill-rule="evenodd" sketch:type="MSPage">
        <g id="video-mask" sketch:type="MSLayerGroup" fill="#FFFFFF">
            <g id="Group" sketch:type="MSShapeGroup">
                <path d="M1836.9,1488 L1834,1488 L1834,1512 L1836.1,1512 C1839.6,1512 1842.2,1511 1843.8,1508.9 C1845.4,1506.8 1846.3,1503.7 1846.3,1499.5 C1846.3,1495.6 1845.5,1492.7 1844,1490.8 C1842.5,1488.9 1840.1,1488 1836.9,1488 L1836.9,1488 Z" id="Shape"></path>
                <path d="M0,0 L0,3000 L4000,3000 L4000,0 L0,0 L0,0 Z M2092.04715,1232.3962 L2091,1293.21715 L2132.41933,1293.174 L2133.42334,1280.61604 L2112.1901,1280.61604 L2112.1901,1265.4771 L2131.33296,1262.4771 L2131.33296,1253.14295 L2112.58229,1253.14295 L2113.23725,1242.42052 L2132.07028,1242.42052 L2132.07028,1232 L2092.04715,1232.3962 Z M2021.86763,1253 C2011.73525,1253 2012.00066,1262.71144 2012.00066,1262.71144 C2012.00066,1262.71144 2011.73526,1273.12827 2021.86763,1273.20327 C2032,1273.27828 2032,1263.00751 2032,1263.00751 C2032,1263.00751 2032,1253 2021.86763,1253 Z M2020.70782,1234 C1986.09563,1234 1989.00225,1262.9127 1989.00225,1262.9127 C1989.00225,1262.9127 1986.09563,1293.92548 2020.70782,1294.14878 C2055.32,1294.37209 2057.32,1263.79417 2057.32,1263.79417 C2057.32,1263.79417 2055.32,1234 2020.70782,1234 Z M1912,1233 L1912.1255,1292.5 L1931.22522,1292.5 L1931.22522,1273.39416 L1951.32503,1273.39817 L1951.67408,1292.5 L1971.7778,1293.1097 L1971.03656,1233 L1951.6821,1233 L1951.97998,1254.3965 L1932.09981,1254.09059 L1932.09981,1233 L1912,1233 Z M1812,1291.776 L1849.7641,1232.5 L1869.99333,1232.5 L1909.45563,1293.096 L1890.66574,1293.08772 L1869.73841,1253.376 L1850.41906,1253.376 L1830.00943,1291.776 L1812,1291.776 Z M1733.71658,1232.50255 L1793.27084,1232.5 L1793.23162,1252.37872 L1773.08475,1253.38 L1773.08475,1292 L1753.55362,1292.48812 L1752.54961,1253.98278 L1734.10485,1252.97877 L1733.71658,1232.50255 Z" id="Shape"></path>
                <path d="M1942.3,1487.4 C1936.5,1487.4 1933.6,1491.6 1933.6,1499.9 C1933.6,1508.2 1936.5,1512.3 1942.2,1512.3 C1945.1,1512.3 1947.3,1511.3 1948.7,1509.3 C1950.1,1507.3 1950.8,1504.2 1950.8,1499.9 C1950.8,1495.6 1950.1,1492.5 1948.6,1490.4 C1947.3,1488.5 1945.1,1487.4 1942.3,1487.4 L1942.3,1487.4 Z" id="Shape"></path>
            </g>
        </g>
    </g>
</svg>