<?xml version="1.0" encoding="UTF-8" standalone="no"?>
<svg width="4000px" height="3000px" viewBox="0 0 4000 3000" version="1.1" xmlns="http://www.w3.org/2000/svg" xmlns:xlink="http://www.w3.org/1999/xlink" xmlns:sketch="http://www.bohemiancoding.com/sketch/ns">
    <!-- Generator: Sketch 3.4.2 (15857) - http://www.bohemiancoding.com/sketch -->
    <title>video-mask1</title>
    <desc>Created with Sketch.</desc>
    <defs></defs>
    <g id="Page-1" stroke="none" stroke-width="1" fill="none" fill-rule="evenodd" sketch:type="MSPage">
        <g id="video-mask" sketch:type="MSLayerGroup" fill="#FFFFFF">
            <g id="Page-1" sketch:type="MSShapeGroup">
                <g id="video-mask">
                    <g id="Group">
                        <path d="M1836.9,1488 L1834,1488 L1834,1512 L1836.1,1512 C1839.6,1512 1842.2,1511 1843.8,1508.9 C1845.4,1506.8 1846.3,1503.7 1846.3,1499.5 C1846.3,1495.6 1845.5,1492.7 1844,1490.8 C1842.5,1488.9 1840.1,1488 1836.9,1488 L1836.9,1488 L1836.9,1488 Z" id="Shape"></path>
                        <path d="M0,0 L0,3000 L4000,3000 L4000,0 L0,0 L0,0 L0,0 Z M2280,1430 L2280.78125,1569.58984 L2321.12109,1569.58984 L2380.82812,1570.67188 C2380.82812,1570.67188 2421.57803,1552.15098 2421.39062,1531.46094 C2421.20322,1510.77089 2360,1490 2360,1490 L2320,1490 C2320,1490 2358.75471,1491.14506 2360,1490.63672 C2384.36862,1480.68927 2421.39062,1470 2420,1450 C2421.39062,1430 2380,1430 2380,1430 L2320,1430 L2280,1430 Z M2300,1430 L2300.04297,1569.95312 M2300,1430 L2300.04297,1569.95312 M2460,1430 L2460,1570.25391 L2541.16016,1570.60156 C2541.16016,1570.60156 2559.86652,1559.04529 2559.53125,1549.14844 C2559.19598,1539.25158 2539.8125,1540.82031 2539.8125,1540.82031 L2499.45703,1541 L2499.45703,1510 L2539.45703,1510 C2539.45703,1510 2559.45703,1500 2559.45703,1490 C2559.45703,1480 2539.45703,1480 2539.45703,1480 L2499.45703,1480 L2499.45703,1450 L2539.45703,1450 C2539.45703,1450 2559.45703,1453 2559.45703,1448 C2559.45703,1443 2539.45703,1430 2539.45703,1430 L2460,1430 Z M2154.39078,1470.00059 C2127.89727,1470.15557 2120.03944,1499.44339 2120.03944,1499.44339 C2120.03944,1499.44339 2117.47337,1539.84043 2153.73669,1539.99953 C2190,1540.15863 2190,1500.07267 2190,1500.07267 C2190,1500.07267 2180.88429,1469.84561 2154.39078,1470.00059 Z M1754.39078,1470.00059 C1727.89727,1470.15557 1720.03944,1499.44339 1720.03944,1499.44339 C1720.03944,1499.44339 1717.47337,1539.84043 1753.73669,1539.99953 C1790,1540.15863 1790,1500.07267 1790,1500.07267 C1790,1500.07267 1780.88429,1469.84561 1754.39078,1470.00059 Z M2168.78156,1430.00119 C2115.79455,1430.31115 2100.07888,1488.88678 2100.07888,1488.88678 C2100.07888,1488.88678 2094.94674,1569.68086 2167.47337,1569.99906 C2240,1570.31725 2240,1490.14534 2240,1490.14534 C2240,1490.14534 2221.76858,1429.69123 2168.78156,1430.00119 Z M2020,1430 L2020,1570 L2040,1570 L2060,1570 C2060,1570 2100,1430 2060,1430 C2020,1430 2020,1430 2020,1430 Z M1958.35977,1449.47602 C1936.91837,1428.53852 1937.17617,1430.02289 1918.14492,1430.02289 C1899.11367,1430.02289 1879.97746,1429.73458 1860.21523,1449.47602 C1840.453,1469.21745 1840.63603,1469.41453 1840.1957,1490 C1839.75537,1510.58547 1840.1957,1550.96429 1840.1957,1550.96429 C1840.1957,1550.96429 1842.58305,1553.46182 1848.48959,1556.66616 C1858.7593,1562.23756 1879.66783,1569.94574 1917.16445,1570.37836 C1976.22695,1571.05979 1978.35976,1550.9643 1978.35976,1550.9643 L1978.35976,1509.60102 L1940.35976,1509.60102 L1940.35976,1529.60102 C1940.35976,1529.60102 1879.82851,1550.9643 1879.82851,1510.58539 C1879.82851,1494.85496 1875.00967,1492.40893 1898.35976,1468.19477 C1916.41055,1449.47602 1978.35976,1468.19477 1978.35976,1468.19477 C1978.35976,1468.19477 1979.80117,1470.41352 1958.35977,1449.47602 Z M1754.39078,1470.00059 C1727.89727,1470.15557 1720.03944,1499.44339 1720.03944,1499.44339 C1720.03944,1499.44339 1717.47337,1539.84043 1753.73669,1539.99953 C1790,1540.15863 1790,1500.07267 1790,1500.07267 C1790,1500.07267 1780.88429,1469.84561 1754.39078,1470.00059 Z M1748.78156,1430.00119 C1695.79455,1430.31115 1680.07888,1488.88678 1680.07888,1488.88678 C1680.07888,1488.88678 1674.94674,1569.68086 1747.47337,1569.99906 C1820,1570.31725 1820,1490.14534 1820,1490.14534 C1820,1490.14534 1801.76858,1429.69123 1748.78156,1430.00119 Z M1520,1430 L1520,1570 L1560,1570 L1560,1510 L1620,1570 L1660,1570 L1660,1430 L1620,1430 L1620,1510 L1560,1430 L1520,1430 Z M1500,1430 L1440,1430 L1440,1511 L1460,1511 C1460,1511 1465.77132,1526.00542 1468.65697,1533.50813 C1470.77132,1539.00542 1475,1550 1475,1550 L1440,1550 L1440,1570 L1500.78906,1570.60547 L1500.39844,1491.17969 L1475.92188,1491.22266 L1460.92188,1451.31641 L1499.74609,1451.57812 L1500,1430 Z" id="Shape"></path>
                        <path d="M1942.3,1487.4 C1936.5,1487.4 1933.6,1491.6 1933.6,1499.9 C1933.6,1508.2 1936.5,1512.3 1942.2,1512.3 C1945.1,1512.3 1947.3,1511.3 1948.7,1509.3 C1950.1,1507.3 1950.8,1504.2 1950.8,1499.9 C1950.8,1495.6 1950.1,1492.5 1948.6,1490.4 C1947.3,1488.5 1945.1,1487.4 1942.3,1487.4 L1942.3,1487.4 L1942.3,1487.4 Z" id="Shape"></path>
                    </g>
                </g>
            </g>
        </g>
    </g>
</svg>